<svg width="500px" height="500px" viewBox="0 0 1175 1173" fill="none" xmlns="http://www.w3.org/2000/svg">
<path d="M690.75 153.516C691.132 153.596 691.516 153.676 691.903 153.757C691.54 153.68 691.155 153.6 690.75 153.516ZM16.2501 606.016C8.75 667.516 6.24996 749.016 18.75 796.016C31.2501 843.016 40.7498 875.016 68.7499 925.016C96.7501 975.016 132.25 1018.52 207.25 1066.02C282.25 1113.52 331.75 1135.02 406.75 1152.02C481.75 1169.02 649.25 1163.02 774.25 1146.52C857.583 1135.52 939.25 1095.18 1019.25 1025.52C1083.25 966.016 1149.75 858.516 1160.75 752.016C1171.75 645.516 1155.25 555.016 1138.75 506.516C1122.25 458.016 1067.25 360.516 1008.75 311.016C950.25 261.516 914.25 234.016 865.75 210.016C817.25 186.016 761.35 167.207 732.75 161.934C723.416 160.213 709.8 157.487 691.903 153.757C695.113 154.432 696.708 154.824 696.689 154.933C696.66 155.095 693.014 154.623 685.75 153.516C680.483 147.794 673.85 137.267 665.85 121.934C653.85 98.934 653.85 71.434 653.85 59.434C653.85 47.434 641.231 30.9045 623.85 29.934C599.837 31.0096 578.136 47.0149 562.359 71.3314C556.694 80.0628 546.82 95.3658 542.85 105.934C538.291 90.8629 538.309 79.7017 538.344 58.0914C538.347 56.1287 538.35 54.0799 538.35 51.934C538.35 26.1614 531.85 14.184 513.85 10.934C477.85 4.43406 443.038 32.8692 437.85 82.4942C435.257 107.307 438.195 134.219 457.75 157.016C421.083 160.349 380.25 171.988 335.25 191.934C267.835 221.815 204.41 274.882 184.824 294.442C184.774 294.492 184.726 294.539 184.675 294.588C149.71 328.228 121.568 360.538 100.25 391.516C68.2502 438.016 23.7502 544.516 16.2501 606.016Z" fill="white"/>
<path fill-rule="evenodd" clip-rule="evenodd" d="M535.918 191.27L528.858 189.362L528.85 189.392L526.818 188.851L526.812 188.874C513.713 185.143 502.81 180.7 494.103 175.544C484.234 169.7 474.647 161.354 465.34 150.505C450.755 133.501 444.907 111.177 447.796 83.5338C450.067 61.8127 457.8 44.9986 470.995 33.0914C483.143 22.1292 496.836 18.0237 512.073 20.7749C517.959 21.8376 522.008 24.2587 524.219 28.0384C526.973 32.7448 528.35 40.71 528.35 51.934C528.35 53.3565 528.348 55.4037 528.344 58.0754C528.323 70.9997 528.51 80.0491 528.903 85.2235C529.511 93.2144 530.927 100.942 533.151 108.406C534.884 116.556 537.436 124.011 540.805 130.771C542.77 134.714 544.256 138.383 545.263 141.777C545.38 142.174 545.522 142.563 545.688 142.943C546.295 144.331 547.146 146.38 548.241 149.09C551.37 156.84 554.521 163.458 557.694 168.942C560.681 174.104 566.111 180.146 573.986 187.069C574.514 187.532 575.024 187.984 575.516 188.424L580.679 193.587C580.74 193.648 580.801 193.708 580.864 193.768L584.464 197.186C584.576 197.292 584.69 197.395 584.806 197.496C584.923 197.596 585.041 197.694 585.162 197.79C585.283 197.885 585.407 197.977 585.532 198.067C585.657 198.157 585.784 198.243 585.913 198.327C586.042 198.411 586.173 198.491 586.306 198.569C586.439 198.647 586.574 198.721 586.71 198.793C586.847 198.864 586.985 198.932 587.124 198.997C587.263 199.062 587.404 199.124 587.547 199.183C587.689 199.241 587.833 199.297 587.978 199.349C588.123 199.4 588.269 199.448 588.416 199.494C588.563 199.539 588.711 199.581 588.86 199.619C589.009 199.657 589.159 199.692 589.31 199.724C589.461 199.755 589.612 199.783 589.764 199.808C589.916 199.832 590.068 199.852 590.221 199.87C590.374 199.888 590.528 199.902 590.681 199.912C590.834 199.922 590.988 199.928 591.142 199.932C591.296 199.935 591.45 199.935 591.604 199.931C591.758 199.927 591.912 199.919 592.065 199.909C592.218 199.897 592.371 199.883 592.524 199.865C592.677 199.847 592.83 199.825 592.982 199.8C593.133 199.775 593.284 199.747 593.435 199.715C593.586 199.682 593.735 199.646 593.884 199.608C594.033 199.568 594.181 199.526 594.328 199.481C594.475 199.435 594.621 199.385 594.766 199.333C594.911 199.28 595.054 199.224 595.196 199.165C595.338 199.106 595.479 199.044 595.618 198.978C595.757 198.912 595.894 198.843 596.031 198.771C596.167 198.699 596.301 198.624 596.433 198.546C596.566 198.468 596.696 198.386 596.825 198.302C596.954 198.218 597.081 198.131 597.206 198.041C597.331 197.95 597.453 197.857 597.574 197.762C597.694 197.666 597.812 197.567 597.928 197.466C598.175 197.25 598.41 197.023 598.635 196.785C598.859 196.546 599.071 196.297 599.271 196.038C599.471 195.778 599.658 195.51 599.831 195.232C600.005 194.954 600.165 194.669 600.31 194.375C600.455 194.081 600.586 193.782 600.702 193.476C600.818 193.169 600.919 192.858 601.004 192.542C601.089 192.226 601.159 191.906 601.213 191.583C601.267 191.26 601.305 190.935 601.327 190.609C601.349 190.281 601.355 189.954 601.345 189.627C601.335 189.299 601.309 188.973 601.267 188.649C601.225 188.324 601.167 188.002 601.093 187.683C601.02 187.364 600.931 187.049 600.826 186.739C600.721 186.429 600.602 186.124 600.467 185.826C600.332 185.527 600.183 185.236 600.02 184.952C599.857 184.668 599.681 184.392 599.49 184.126C599.3 183.859 599.097 183.602 598.882 183.356C597.084 181.298 594.654 178.85 591.592 176.012L591.332 175.752C591.258 175.677 591.182 175.603 591.105 175.531L587.605 172.236C587.127 171.785 586.61 171.386 586.053 171.038C580.462 166.029 576.779 161.992 575.006 158.927C572.304 154.256 569.564 148.481 566.786 141.601C565.798 139.154 564.983 137.182 564.341 135.686C563.838 133.771 563.266 131.905 562.623 130.087C562.441 129.572 562.35 129.021 562.35 128.434C562.35 126.717 562.233 124.922 561.999 123.048C561.643 120.192 561.752 114.724 562.325 106.642C563.204 94.2492 566.023 84.276 570.782 76.7223C578.145 65.3859 586.449 56.5278 595.695 50.1481C604.77 43.8866 614.128 40.4874 623.769 39.9505C629.104 40.3716 633.857 42.8354 638.03 47.342C641.91 51.5323 643.85 55.563 643.85 59.434C643.85 87.4019 648.228 109.777 656.984 126.56C665.393 142.676 672.529 153.919 678.393 160.289C678.584 160.496 678.783 160.695 678.99 160.885C679.197 161.075 679.413 161.257 679.636 161.429C679.859 161.601 680.088 161.763 680.325 161.916C680.562 162.069 680.804 162.212 681.052 162.344C681.301 162.476 681.555 162.597 681.814 162.709C682.073 162.819 682.336 162.919 682.603 163.008C682.87 163.096 683.141 163.173 683.414 163.239C683.688 163.305 683.964 163.359 684.243 163.402C691.076 164.443 695.161 164.964 696.5 164.964C696.562 164.964 696.624 164.963 696.687 164.963C711.34 167.991 722.756 170.26 730.937 171.769C745.686 174.487 764.857 180.024 788.45 188.379C814.301 197.533 838.589 207.733 861.315 218.979C883.838 230.124 905.956 243.49 927.668 259.077C946.217 272.392 971.091 292.25 1002.29 318.65C1028.41 340.75 1054.66 372.693 1081.04 414.48C1103.93 450.724 1120.01 482.476 1129.28 509.737C1138.84 537.837 1145.79 570.809 1150.13 608.654C1155.52 655.703 1155.74 703.148 1150.8 750.989C1145.75 799.963 1129.18 850.166 1101.1 901.599C1075.87 947.803 1046.36 986.632 1012.56 1018.09C934.113 1086.37 854.24 1125.87 772.941 1136.61C707.178 1145.29 640.042 1150.36 571.535 1151.83C498.24 1153.41 444.049 1150.22 408.961 1142.27C372.169 1133.93 339.503 1123.6 310.964 1111.28C282.555 1099.01 249.767 1081.11 212.6 1057.57C178.095 1035.71 149.779 1013.05 127.65 989.592C109.144 969.97 92.4191 946.816 77.475 920.13C64.8705 897.622 54.818 876.22 47.3174 855.925C41.8799 841.211 35.5788 820.384 28.4141 793.446C22.8047 772.354 20 743.357 20 706.454C20 674.067 22.0588 640.991 26.1765 607.227C29.685 578.457 40.4083 541.667 58.3464 496.857C75.4513 454.128 92.1652 420.904 108.488 397.185C129.423 366.763 157.129 334.967 191.608 301.795C191.702 301.704 191.796 301.612 191.89 301.519C205.572 287.855 224.27 272.397 247.984 255.145C279.864 231.953 310.303 213.93 339.302 201.077C381.247 182.485 419.363 171.286 453.652 167.48C463.332 178.115 473.419 186.54 483.913 192.754C496.233 200.048 511.924 206.014 530.987 210.651C531.143 210.689 531.3 210.723 531.458 210.754C531.617 210.784 531.776 210.811 531.935 210.834C532.094 210.856 532.254 210.875 532.414 210.891C532.575 210.905 532.735 210.916 532.896 210.924C533.057 210.931 533.218 210.934 533.379 210.934C533.54 210.934 533.701 210.929 533.862 210.921C534.023 210.913 534.183 210.901 534.343 210.885C534.503 210.869 534.663 210.849 534.822 210.825C534.981 210.801 535.14 210.774 535.298 210.743C535.456 210.711 535.613 210.676 535.769 210.637C535.926 210.598 536.081 210.555 536.235 210.509C536.389 210.463 536.542 210.413 536.694 210.359C536.846 210.305 536.996 210.247 537.145 210.186C537.294 210.125 537.442 210.06 537.587 209.992C537.733 209.924 537.877 209.852 538.02 209.777C538.162 209.701 538.302 209.623 538.441 209.541C538.58 209.459 538.716 209.374 538.851 209.286C538.985 209.197 539.117 209.105 539.247 209.01C539.378 208.915 539.506 208.817 539.631 208.716C539.756 208.615 539.879 208.511 539.999 208.404C540.119 208.296 540.237 208.186 540.352 208.074C540.467 207.961 540.579 207.846 540.688 207.728C540.797 207.61 540.904 207.489 541.008 207.366C541.111 207.242 541.212 207.116 541.309 206.988C541.407 206.86 541.501 206.729 541.592 206.597C541.683 206.464 541.771 206.329 541.856 206.193C541.941 206.055 542.022 205.916 542.1 205.776C542.178 205.634 542.253 205.492 542.324 205.348C542.395 205.203 542.462 205.057 542.526 204.909C542.59 204.761 542.65 204.612 542.707 204.462C542.764 204.311 542.818 204.159 542.867 204.006C542.916 203.852 542.962 203.698 543.004 203.543C543.047 203.385 543.085 203.226 543.12 203.066C543.155 202.906 543.186 202.745 543.213 202.584C543.24 202.422 543.263 202.26 543.282 202.098C543.301 201.935 543.316 201.772 543.327 201.609C543.338 201.445 543.345 201.282 543.348 201.119C543.351 200.955 543.35 200.792 543.345 200.628C543.34 200.464 543.331 200.301 543.318 200.138C543.305 199.974 543.288 199.812 543.267 199.65C543.246 199.487 543.221 199.325 543.192 199.165C543.163 199.003 543.13 198.843 543.093 198.684C543.056 198.524 543.016 198.366 542.971 198.209C542.926 198.051 542.878 197.894 542.826 197.74C542.774 197.584 542.718 197.431 542.658 197.279C542.598 197.126 542.534 196.975 542.467 196.826C542.4 196.677 542.329 196.53 542.255 196.384C542.18 196.238 542.102 196.094 542.021 195.953C541.939 195.811 541.854 195.671 541.766 195.533C541.677 195.395 541.586 195.26 541.491 195.127C541.396 194.993 541.297 194.862 541.196 194.734C541.095 194.606 540.99 194.48 540.882 194.357C540.775 194.233 540.664 194.113 540.55 193.995C540.437 193.877 540.32 193.762 540.201 193.65C540.082 193.538 539.96 193.429 539.835 193.323C539.711 193.216 539.584 193.113 539.454 193.014C539.325 192.914 539.193 192.817 539.058 192.724C538.924 192.63 538.787 192.54 538.648 192.453C538.509 192.366 538.369 192.283 538.226 192.204C538.083 192.124 537.939 192.047 537.792 191.975C537.645 191.902 537.497 191.833 537.347 191.768C537.197 191.702 537.045 191.641 536.892 191.583C536.739 191.525 536.585 191.47 536.429 191.42C536.273 191.37 536.116 191.323 535.958 191.281L535.918 191.27ZM439.966 149.114C429.179 130.282 425.158 107.729 427.904 81.4545C430.707 54.647 440.604 33.5765 457.596 18.2431C465.679 10.949 474.694 5.80731 484.639 2.81789C494.781 -0.230764 505.11 -0.805681 515.627 1.09314C527.552 3.24625 536.17 8.86109 541.481 17.9376C546.06 25.7635 548.35 37.0956 548.35 51.934C548.35 53.3779 548.348 55.4357 548.344 58.1074C548.333 64.6657 548.375 70.1416 548.469 74.5349C550.172 71.7983 552.006 68.9162 553.97 65.8886C562.78 52.3106 572.902 41.5766 584.337 33.6866C596.728 25.1364 609.75 20.5555 623.403 19.944C623.738 19.929 624.073 19.9309 624.408 19.9496C635.316 20.5587 644.749 25.1601 652.706 33.7539C660.135 41.7781 663.85 50.3381 663.85 59.434C663.85 84.1328 667.472 103.424 674.716 117.309C680.933 129.225 686.17 137.962 690.427 143.521C691.218 143.495 692.001 143.563 692.776 143.723C693.178 143.806 693.561 143.886 693.924 143.963C711.755 147.68 725.301 150.392 734.563 152.1C750.35 155.01 770.537 160.819 795.125 169.526C821.726 178.945 846.746 189.454 870.185 201.053C893.686 212.682 916.735 226.608 939.332 242.83C958.312 256.455 983.605 276.639 1015.21 303.382C1042.9 326.808 1070.48 360.281 1097.96 403.802C1121.68 441.378 1138.43 474.543 1148.22 503.295C1158.24 532.749 1165.5 567.11 1170 606.378C1175.55 654.87 1175.79 703.758 1170.7 753.043C1165.37 804.684 1148.02 857.397 1118.65 911.183C1092.36 959.342 1061.49 999.893 1026.06 1032.84C1025.98 1032.91 1025.9 1032.98 1025.82 1033.06C944.302 1104.04 860.882 1145.17 775.559 1156.43C709.07 1165.21 641.206 1170.34 571.965 1171.83C497.033 1173.44 441.224 1170.09 404.539 1161.77C366.544 1153.15 332.709 1142.44 303.036 1129.64C273.663 1116.96 239.951 1098.57 201.899 1074.47C165.978 1051.71 136.379 1028 113.1 1003.31C93.4649 982.495 75.7732 958.024 60.0249 929.902C46.9096 906.482 36.4204 884.133 28.5575 862.857C22.9025 847.555 16.412 826.132 9.08599 798.586C3.02866 775.81 0 745.1 0 706.454C1.33333e-05 673.256 2.10789 639.373 6.32363 604.805C10.0426 574.309 21.1944 535.849 39.7789 489.425C57.436 445.316 74.8471 410.79 92.0122 385.847C113.713 354.313 142.289 321.491 177.742 287.382C177.747 287.376 177.753 287.371 177.758 287.366C192.175 272.967 211.662 256.836 236.218 238.972C269.243 214.946 300.903 196.219 331.198 182.792C370.455 165.392 406.711 154.166 439.966 149.114Z" fill="black"/>
</svg>
