<svg xmlns="http://www.w3.org/2000/svg" xmlns:xlink="http://www.w3.org/1999/xlink" fill="none" version="1.1" width="1174.3475341796875" height="1172.2176513671875" viewBox="0 0 1174.3475341796875 1172.2176513671875"><g><g><path d="M690.75,153.51562118530273Q691.323,153.63562118530274,691.903,153.75662118530275Q691.358,153.64162118530274,690.75,153.51562118530273ZM16.25008,606.0156211853027C8.75,667.5156211853027,6.24996,749.0156211853027,18.75004,796.0156211853027C31.2501,843.0156211853027,40.7498,875.0156211853027,68.7499,925.0156211853027C96.7501,975.0156211853027,132.25,1018.5156211853027,207.25,1066.0156211853027C282.25,1113.5156211853027,331.75,1135.0156211853027,406.75,1152.0156211853027C481.75,1169.0156211853027,649.25,1163.0156211853027,774.25,1146.5156211853027Q899.25,1130.0156211853027,1019.25,1025.5156211853027C1083.25,966.0156211853027,1149.75,858.5156211853027,1160.75,752.0156211853027C1171.75,645.5156211853027,1155.25,555.0156211853027,1138.75,506.51562118530273C1122.25,458.01562118530273,1067.25,360.51562118530273,1008.75,311.01562118530273C950.25,261.51562118530273,914.25,234.01562118530273,865.75,210.01562118530273C817.25,186.01562118530273,761.35,167.20662118530274,732.75,161.93362118530274Q718.749,159.35262118530272,691.903,153.75662118530275Q696.718,154.76962118530273,696.689,154.93262118530274Q696.646,155.17662118530274,685.75,153.51562118530273Q677.85,144.93362118530274,665.85,121.93362118530274C653.85,98.93402118530274,653.85,71.43402118530273,653.85,59.43402118530273C653.85,47.43402118530273,641.231,30.904521185302734,623.85,29.934021185302733C599.837,31.009621185302734,578.136,47.01492118530273,562.359,71.33142118530273C556.694,80.06282118530274,546.82,95.36582118530274,542.85,105.93402118530274C538.291,90.86292118530274,538.309,79.70172118530273,538.344,58.091421185302735C538.347,56.12872118530274,538.35,54.07992118530274,538.35,51.93402118530273C538.35,26.161421185302736,531.85,14.184021185302734,513.85,10.934034185302734C477.85,4.434061185302735,443.038,32.869221185302735,437.85,82.49422118530273C435.257,107.30672118530273,438.195,134.21862118530274,457.75,157.01562118530273Q402.75,162.01562118530273,335.25,191.93362118530274C267.835,221.81462118530274,204.41,274.8816211853027,184.824,294.4416211853027C184.774,294.49162118530273,184.726,294.53862118530276,184.675,294.58762118530274Q132.227,345.04862118530275,100.2501,391.51562118530273C68.2502,438.01562118530273,23.7502,544.5156211853027,16.25008,606.0156211853027Z" fill="#FFFFFF" fill-opacity="1"/><path d="M535.918,191.26962118530273L528.858,189.36162118530274L528.85,189.39162118530274L526.818,188.85062118530274L526.812,188.87362118530274Q507.164,183.27762118530273,494.103,175.54362118530273Q479.3,166.77862118530274,465.34,150.50462118530274Q443.462,124.99862118530274,447.796,83.53382118530273Q451.202,50.95222118530273,470.995,33.091421185302735Q489.217,16.648081185302736,512.073,20.774921185302734Q520.902,22.368921185302735,524.219,28.038421185302735Q528.35,35.098021185302734,528.35,51.93402118530273Q528.35,54.06782118530273,528.344,58.07542118530274Q528.313,77.46192118530273,528.903,85.22352118530273Q529.815,97.20982118530273,533.151,108.40612118530274Q535.751,120.63162118530273,540.805,130.77062118530273Q543.753,136.68562118530275,545.263,141.77662118530273Q545.439,142.37262118530273,545.688,142.94262118530273Q546.599,145.02462118530272,548.241,149.08962118530275Q552.935,160.71562118530272,557.694,168.94162118530272Q562.174,176.68462118530275,573.986,187.06862118530273Q574.778,187.76362118530272,575.516,188.42362118530272L580.679,193.58662118530273Q580.77,193.67862118530275,580.864,193.76762118530274L584.464,197.18562118530272Q584.632,197.34462118530274,584.806,197.49562118530272Q584.981,197.64662118530273,585.162,197.78962118530274Q585.344,197.93262118530274,585.532,198.06662118530272Q585.719,198.20162118530274,585.913,198.32662118530274Q586.107,198.45262118530275,586.306,198.56862118530273Q586.506,198.68562118530272,586.71,198.79262118530272Q586.915,198.89962118530272,587.124,198.99662118530273Q587.333,199.09462118530274,587.547,199.18262118530274Q587.76,199.27062118530273,587.978,199.34862118530273Q588.195,199.42562118530273,588.416,199.49362118530274Q588.636,199.56162118530273,588.86,199.61862118530274Q589.084,199.67662118530274,589.31,199.72362118530273Q589.536,199.77062118530273,589.764,199.80762118530274Q589.992,199.84362118530274,590.221,199.86962118530275Q590.451,199.89662118530273,590.681,199.91162118530272Q590.911,199.92662118530274,591.142,199.93162118530273Q591.373,199.93662118530273,591.604,199.93062118530273Q591.835,199.92462118530273,592.065,199.90862118530274Q592.295,199.89162118530274,592.524,199.86462118530272Q592.754,199.83762118530274,592.982,199.79962118530273Q593.209,199.76262118530275,593.435,199.71462118530275Q593.661,199.66562118530274,593.884,199.60762118530275Q594.108,199.54862118530272,594.328,199.48062118530274Q594.549,199.41162118530272,594.766,199.33262118530274Q594.983,199.25362118530273,595.196,199.16462118530274Q595.409,199.07662118530274,595.618,198.97762118530272Q595.826,198.87962118530274,596.031,198.77062118530273Q596.235,198.66262118530273,596.433,198.54562118530274Q596.632,198.42862118530275,596.825,198.30162118530274Q597.019,198.17562118530273,597.206,198.04062118530274Q597.393,197.90462118530274,597.574,197.76162118530274Q597.754,197.61762118530274,597.928,197.46562118530272Q598.298,197.14262118530274,598.635,196.78462118530274Q598.971,196.42662118530274,599.271,196.03762118530273Q599.571,195.64862118530274,599.831,195.23162118530274Q600.092,194.81562118530275,600.31,194.37462118530274Q600.528,193.93462118530275,600.702,193.47562118530274Q600.876,193.01562118530273,601.004,192.54162118530274Q601.132,192.06762118530273,601.213,191.58262118530274Q601.294,191.09862118530273,601.327,190.60862118530272Q601.36,190.11762118530274,601.345,189.62662118530272Q601.33,189.13562118530274,601.267,188.64862118530274Q601.204,188.16162118530272,601.093,187.68262118530274Q600.983,187.20462118530273,600.826,186.73862118530275Q600.669,186.27362118530274,600.467,185.82562118530274Q600.265,185.37762118530273,600.02,184.95162118530274Q599.776,184.52562118530273,599.49,184.12562118530275Q599.205,183.72562118530274,598.882,183.35562118530274Q596.185,180.26862118530272,591.592,176.01162118530274L591.332,175.75162118530272Q591.221,175.63962118530273,591.105,175.53062118530272L587.605,172.23562118530273Q586.888,171.55962118530275,586.053,171.03762118530273Q577.666,163.52462118530272,575.006,158.92662118530274Q570.953,151.92062118530274,566.786,141.60062118530274Q565.304,137.93062118530275,564.341,135.68562118530275Q563.587,132.81362118530274,562.623,130.08662118530273Q562.35,129.31462118530274,562.35,128.43362118530274Q562.35,125.85862118530274,561.999,123.04762118530273Q561.465,118.76462118530273,562.325,106.64192118530273Q563.644,88.05292118530274,570.782,76.72232118530273Q581.826,59.717721185302736,595.695,50.148121185302735Q609.307,40.755821185302736,623.769,39.95052118530273Q631.771,40.58212118530274,638.03,47.342021185302734Q643.85,53.62752118530273,643.85,59.43402118530273Q643.85,101.38592118530273,656.984,126.55962118530273Q669.597,150.73362118530272,678.393,160.28862118530273Q678.679,160.59962118530274,678.99,160.88462118530273Q679.301,161.17062118530274,679.636,161.42862118530275Q679.97,161.68662118530273,680.325,161.91562118530274Q680.68,162.14562118530273,681.052,162.34362118530274Q681.425,162.54162118530274,681.814,162.70862118530275Q682.202,162.87462118530274,682.603,163.00762118530272Q683.004,163.14062118530273,683.414,163.23862118530275Q683.825,163.33762118530274,684.243,163.40162118530273Q694.492,164.96362118530274,696.5,164.96362118530274Q696.593,164.96362118530274,696.687,164.96262118530274Q718.666,169.50562118530274,730.937,171.76862118530272Q753.06,175.84662118530272,788.45,188.37862118530273Q827.226,202.10962118530273,861.315,218.97862118530273Q895.1,235.69662118530275,927.668,259.07662118530277Q955.491,279.0496211853027,1002.291,318.64962118530275Q1041.47,351.7996211853027,1081.04,414.47962118530273Q1115.37,468.8456211853027,1129.28,509.73662118530274Q1143.62,551.8866211853027,1150.13,608.6536211853028Q1158.21,679.2276211853027,1150.8,750.9886211853027Q1143.22,824.4496211853027,1101.1,901.5986211853027Q1063.26,970.9046211853027,1012.56,1018.0856211853028Q894.89,1120.5056211853027,772.941,1136.6056211853027Q674.296,1149.6256211853026,571.535,1151.8256211853027Q461.593,1154.1956211853028,408.961,1142.2656211853027Q353.773,1129.7556211853027,310.964,1111.2756211853027Q268.35,1092.8756211853026,212.6,1057.5656211853027Q160.843,1024.7856211853027,127.65,989.5916211853028Q99.8912,960.1586211853028,77.475,920.1296211853028Q58.5683,886.3676211853027,47.3174,855.9246211853027Q39.161100000000005,833.8536211853027,28.4141,793.4456211853027Q19.99998,761.8086211853027,20,706.4536211853027Q20,657.8736211853027,26.1765,607.2266211853027Q31.4392,564.0726211853028,58.3464,496.85662118530274Q84.0038,432.7636211853027,108.4879,397.1846211853027Q139.89,351.5526211853027,191.608,301.79462118530273Q191.749,301.6586211853027,191.89,301.5186211853027Q212.413,281.02262118530274,247.984,255.14462118530273Q295.804,220.35662118530274,339.302,201.07662118530274Q402.219,173.18962118530274,453.652,167.47962118530273Q468.172,183.43262118530274,483.913,192.75362118530273Q502.393,203.69562118530274,530.987,210.65062118530273Q531.221,210.70762118530274,531.458,210.75362118530273Q531.696,210.79962118530273,531.935,210.83362118530275Q532.174,210.86762118530274,532.414,210.89062118530273Q532.655,210.91262118530273,532.896,210.92362118530272Q533.137,210.93462118530275,533.379,210.93362118530274Q533.62,210.93362118530274,533.862,210.92062118530274Q534.103,210.90862118530274,534.343,210.88462118530273Q534.583,210.86062118530273,534.822,210.82462118530273Q535.061,210.78962118530274,535.298,210.74262118530274Q535.535,210.69562118530274,535.769,210.63662118530274Q536.004,210.57862118530272,536.235,210.50862118530273Q536.466,210.43962118530274,536.694,210.35862118530272Q536.922,210.27762118530273,537.145,210.18562118530272Q537.369,210.09462118530274,537.587,209.99162118530273Q537.806,209.88962118530273,538.02,209.77662118530273Q538.233,209.66362118530273,538.441,209.54062118530274Q538.649,209.41862118530273,538.851,209.28562118530274Q539.052,209.15262118530273,539.247,209.00962118530273Q539.443,208.86762118530274,539.631,208.71562118530272Q539.819,208.56462118530274,539.999,208.40362118530274Q540.179,208.24262118530274,540.352,208.07362118530273Q540.524,207.90462118530274,540.688,207.72762118530272Q540.852,207.55062118530273,541.008,207.36562118530273Q541.163,207.18062118530273,541.309,206.98762118530274Q541.456,206.79562118530274,541.592,206.59662118530272Q541.729,206.39762118530274,541.856,206.19262118530273Q541.983,205.98662118530274,542.1,205.77562118530273Q542.217,205.56362118530274,542.324,205.34762118530273Q542.43,205.13062118530274,542.526,204.90862118530274Q542.622,204.68762118530273,542.707,204.46162118530273Q542.793,204.23562118530273,542.867,204.00562118530274Q542.941,203.77562118530273,543.004,203.54262118530272Q543.068,203.30562118530273,543.12,203.06562118530275Q543.173,202.82562118530274,543.213,202.58362118530275Q543.253,202.34162118530273,543.282,202.09762118530273Q543.311,201.85362118530273,543.327,201.60862118530272Q543.344,201.36362118530275,543.348,201.11862118530274Q543.353,200.87362118530274,543.345,200.62762118530273Q543.338,200.38262118530272,543.318,200.13762118530275Q543.299,199.89262118530274,543.267,199.64962118530272Q543.236,199.40562118530272,543.192,199.16462118530274Q543.149,198.92262118530275,543.093,198.68362118530274Q543.038,198.44462118530274,542.971,198.20862118530275Q542.904,197.97162118530272,542.826,197.73962118530272Q542.748,197.50662118530275,542.658,197.27862118530274Q542.568,197.04962118530273,542.467,196.82562118530274Q542.366,196.60262118530272,542.255,196.38362118530273Q542.143,196.16462118530274,542.021,195.95262118530275Q541.898,195.73962118530272,541.766,195.53262118530273Q541.633,195.32662118530274,541.491,195.12662118530272Q541.348,194.92662118530274,541.196,194.73362118530272Q541.044,194.54162118530274,540.882,194.35662118530274Q540.721,194.17162118530274,540.55,193.99462118530275Q540.38,193.81762118530273,540.201,193.64962118530272Q540.022,193.48162118530274,539.835,193.32262118530272Q539.649,193.16262118530273,539.454,193.01362118530272Q539.26,192.86362118530275,539.058,192.72362118530273Q538.857,192.58362118530275,538.648,192.45262118530275Q538.44,192.32262118530272,538.226,192.20362118530272Q538.012,192.08362118530275,537.792,191.97462118530274Q537.572,191.86562118530273,537.347,191.76762118530274Q537.122,191.66962118530273,536.892,191.58262118530274Q536.663,191.49562118530272,536.429,191.41962118530273Q536.195,191.34462118530274,535.958,191.28062118530272L535.918,191.26962118530273ZM439.966,149.11362118530275Q423.785,120.86562118530273,427.904,81.45452118530274Q432.108,41.24322118530273,457.596,18.243101185302734Q469.721,7.302031185302734,484.639,2.817901185302734Q499.852,-1.7550788146972653,515.627,1.0931511853027338Q533.514,4.322821185302734,541.481,17.937651185302734Q548.35,29.676421185302733,548.35,51.93402118530273Q548.35,54.09982118530274,548.344,58.107421185302734Q548.328,67.94492118530273,548.469,74.53492118530274Q551.024,70.43002118530273,553.97,65.88862118530272Q567.185,45.521621185302735,584.337,33.686621185302734Q602.924,20.861321185302735,623.403,19.944041185302734Q623.905,19.921541185302736,624.408,19.949581185302733Q640.77,20.863221185302734,652.706,33.75392118530273Q663.85,45.790221185302734,663.85,59.43402118530273Q663.85,96.48222118530273,674.716,117.30862118530274Q684.041,135.18262118530274,690.427,143.52062118530273Q691.613,143.48262118530275,692.776,143.72262118530273Q693.379,143.84762118530273,693.924,143.96262118530274Q720.67,149.53862118530273,734.563,152.09962118530274Q758.243,156.46562118530272,795.125,169.52562118530273Q835.026,183.65462118530274,870.185,201.05262118530274Q905.436,218.49662118530273,939.332,242.82962118530273Q967.802,263.26762118530274,1015.21,303.3816211853027Q1056.74,338.52062118530273,1097.96,403.80162118530274Q1133.54,460.16662118530274,1148.22,503.29462118530273Q1163.25,547.4756211853028,1170,606.3776211853027Q1178.33,679.1156211853028,1170.7,753.0426211853028Q1162.7,830.5046211853028,1118.65,911.1826211853028Q1079.21,983.4216211853027,1026.06,1032.835621185303Q1025.94,1032.9456211853026,1025.8200000000002,1033.0556211853027Q903.543,1139.5356211853027,775.559,1156.4256211853028Q675.826,1169.5956211853027,571.965,1171.8256211853027Q459.567,1174.2456211853028,404.539,1161.7656211853027Q347.546,1148.8456211853027,303.036,1129.6356211853026Q258.977,1110.6156211853026,201.899,1074.4656211853028Q148.018,1040.3356211853027,113.1,1003.3146211853027Q83.6473,972.0846211853027,60.0249,929.9016211853027Q40.3519,894.7716211853027,28.5575,862.8566211853027Q20.075,839.9046211853027,9.085989,798.5856211853028Q0,764.4226211853028,0,706.4536211853027Q0.000019999999999242846,656.6576211853028,6.32363,604.8046211853027Q11.9021,559.0616211853028,39.7789,489.4246211853027Q66.2646,423.2616211853027,92.0122,385.84662118530275Q124.563,338.5456211853027,177.742,287.3816211853027Q177.75,287.37362118530274,177.758,287.36562118530276Q199.384,265.76762118530274,236.218,238.97162118530272Q285.756,202.93262118530274,331.198,182.79162118530274Q390.084,156.69162118530272,439.966,149.11362118530275Z" fill-rule="evenodd" fill="#000000" fill-opacity="1"/></g><g><g><ellipse cx="343.74993896484375" cy="733.5156211853027" rx="51.5" ry="51.5" fill="#000000" fill-opacity="1"/></g><g transform="matrix(0.8090172410011292,-0.587785542011261,0.587785542011261,0.8090172410011292,-361.4744532556331,310.61470912243044)"><ellipse cx="318.97836685180664" cy="727.9368705749512" rx="21.72842788696289" ry="16.377914428710938" fill="#FFFFFF" fill-opacity="1"/></g><g><path d="M369.7654389648437,631.672095814209L382.1952389648437,643.2446658142089C382.2437389648437,643.289765814209,382.31223896484374,643.218765814209,382.2654389648437,643.171865814209Q382.2654389648437,639.672065814209,379.2654389648437,637.672065814209C376.2654389648437,635.672065814209,375.2654389648437,633.672095814209,369.7654389648437,631.672095814209ZM313.74993896484375,634.015625814209C313.06613896484373,634.865245814209,312.12842896484375,635.794765814209,311.12400896484377,636.724865814209Q312.58533896484374,635.080165814209,313.74993896484375,634.015625814209ZM305.23973896484375,642.545865814209C305.1355089648437,642.851865814209,305.8495789648438,643.258565814209,306.04478896484375,643.000865814209Q308.9214189648437,639.203965814209,311.12400896484377,636.724865814209C308.58015896484375,639.0806658142089,305.60839896484373,641.4402658142089,305.24993896484375,642.515665814209Q305.24493896484375,642.530665814209,305.23973896484375,642.545865814209Z" fill="#EA5A40" fill-opacity="1"/><path d="M314.7206389648438,645.725965814209Q314.7287389648437,645.701965814209,314.73673896484377,645.677865814209L314.7206389648438,645.725965814209ZM304.07314896484377,629.615425814209Q303.36825896484373,630.263595814209,302.42129696484375,631.103245814209Q296.87338896484374,636.022465814209,295.76310896484375,639.3533658142089L295.76341896484377,639.352265814209Q294.07716896484374,644.302365814209,297.1689889648438,648.611765814209Q298.5327089648438,650.512565814209,300.59640896484376,651.6830658142089Q302.7135009648438,652.883765814209,305.1047989648437,653.0557658142089Q310.66971896484375,653.455865814209,314.01553896484376,649.039665814209Q316.56173896484376,645.678865814209,318.38923896484374,643.596365814209Q319.66983896484373,642.376465814209,320.56613896484373,641.4058658142089Q330.43003896484373,634.231115814209,342.47473896484377,635.140865814209Q342.88583896484374,635.171865814209,343.29763896484377,635.172065814209Q355.40263896484373,635.178165814209,363.8005389648438,639.7817658142089L375.38123896484376,650.563765814209Q378.63693896484375,653.594765814209,383.06703896484373,653.224065814209Q386.83533896484374,652.908765814209,389.46203896484377,650.1866658142089Q392.0888389648437,647.464565814209,392.26963896484375,643.6875658142089Q392.30683896484373,642.9094658142089,392.24103896484377,642.171165814209Q391.8388389648437,634.035825814209,384.81243896484375,629.351595814209Q384.34703896484376,629.0413158142089,383.30103896484377,628.164025814209Q379.0331389648437,624.584468814209,374.08193896484374,622.616235814209Q361.1148389648437,615.251155814209,343.64093896484377,615.172915814209Q323.74383896484375,613.7844658142089,307.6754289648438,626.072055814209L307.32684896484375,626.338615814209L307.0029689648438,626.634675814209Q305.65981896484374,627.8624558142089,304.07314896484377,629.615425814209Z" fill-rule="evenodd" fill="#000000" fill-opacity="1"/></g></g><g><g><ellipse cx="812.7499389648438" cy="733.5156211853027" rx="51.5" ry="51.5" fill="#000000" fill-opacity="1"/></g><g transform="matrix(0.80901700258255,-0.5877852439880371,0.5877852439880371,0.80901700258255,-271.7132378053557,586.8742045586107)"><ellipse cx="788.9799385070801" cy="727.9407863616943" rx="21.729999542236328" ry="16.3799991607666" fill="#FFFFFF" fill-opacity="1"/></g><g><path d="M782.7499389648438,633.0023811853027C782.0661389648437,633.8520011853027,781.1284289648438,634.7815211853027,780.1240089648437,635.7116211853028Q781.5853389648438,634.0669211853027,782.7499389648438,633.0023811853027ZM838.7654389648437,630.6588511853028L851.1952389648437,642.2314211853027C851.2437389648437,642.2765211853027,851.3122389648438,642.2055211853027,851.2654389648437,642.1586211853028Q851.2654389648437,638.6588211853027,848.2654389648437,636.6588211853027C845.2654389648437,634.6588211853027,844.2654389648437,632.6588511853028,838.7654389648437,630.6588511853028ZM774.2397389648437,641.5326211853028C774.1355089648438,641.8386211853027,774.8495789648438,642.2453211853027,775.0447889648437,641.9876211853027Q777.9214189648437,638.1907211853028,780.1240089648437,635.7116211853028C777.5801589648438,638.0674211853027,774.6083989648438,640.4270211853027,774.2499389648438,641.5024211853028Q774.2449389648438,641.5174211853027,774.2397389648437,641.5326211853028Z" fill="#EA5A40" fill-opacity="1"/><path d="M783.7206389648437,644.7127211853027Q783.7287389648437,644.6887211853027,783.7367389648438,644.6646211853027L783.7206389648437,644.7127211853027ZM773.0731489648438,628.6021811853027Q772.3682589648438,629.2503511853027,771.4212969648438,630.0900011853028Q765.8733889648438,635.0092211853027,764.7631089648437,638.3401211853027L764.7634189648437,638.3390211853027Q763.0771689648437,643.2891211853027,766.1689889648437,647.5985211853027Q767.5327089648438,649.4993211853027,769.5964089648437,650.6698211853027Q771.7135009648438,651.8705211853028,774.1047989648438,652.0425211853027Q779.6697189648437,652.4426211853028,783.0155389648437,648.0264211853028Q785.5617389648437,644.6656211853027,787.3892389648438,642.5831211853027Q788.6698389648437,641.3632211853028,789.5661389648437,640.3926211853027Q799.4300389648438,633.2178711853028,811.4747389648437,634.1276211853027Q811.8858389648437,634.1586211853028,812.2976389648437,634.1588211853027Q824.4026389648437,634.1649211853028,832.8005389648438,638.7685211853027L844.3812389648438,649.5505211853027Q847.6369389648437,652.5815211853028,852.0670389648437,652.2108211853027Q855.8353389648438,651.8955211853028,858.4620389648437,649.1734211853027Q861.0888389648437,646.4513211853027,861.2696389648438,642.6743211853027Q861.3068389648438,641.8962211853027,861.2410389648437,641.1579211853027Q860.8388389648437,633.0225811853028,853.8124389648438,628.3383511853027Q853.3470389648437,628.0280711853027,852.3010389648438,627.1507811853028Q848.0331389648437,623.5712241853028,843.0819389648437,621.6029911853027Q830.1148389648438,614.2379111853028,812.6409389648437,614.1596711853027Q792.7438389648438,612.7712211853027,776.6754289648437,625.0588111853027L776.3268489648437,625.3253711853027L776.0029689648437,625.6214311853028Q774.6598189648438,626.8492111853027,773.0731489648438,628.6021811853027Z" fill-rule="evenodd" fill="#000000" fill-opacity="1"/></g></g><g><g><path d="M390.2499529726563,945.015682220459Q386.74994697265623,979.515682220459,401.2499969726563,1022.015682220459Q424.24989697265624,1065.515682220459,458.24989697265624,1087.515682220459Q492.25039697265623,1109.515682220459,577.2503969726563,1113.015682220459Q649.7503969726563,1110.015682220459,689.7503969726563,1090.015682220459C729.7503969726563,1070.015682220459,747.2503969726563,1035.515682220459,753.7503969726563,1022.015682220459C760.2503969726563,1008.515682220459,767.7503969726563,964.515682220459,764.7503969726563,938.015682220459Q761.7503969726563,911.515682220459,746.7503969726563,860.515682220459Q740.2503969726563,814.515582220459,746.7503969726563,811.015682220459C753.2503969726563,807.515682220459,778.2493969726563,773.015782220459,753.7503969726563,749.515682220459C741.5003969726563,737.765682220459,731.2503969726563,736.515582220459,718.2503969726563,739.515582220459C705.2503969726563,742.515582220459,702.2503969726563,745.015682220459,681.7503969726563,746.515682220459C661.1173969726563,748.0253822204589,647.1953969726562,741.810982220459,632.5293969726563,735.264282220459C618.0523969726562,728.8019022204589,602.8493969726562,722.015691695419,579.7503969726563,722.015682220459C555.0023969726562,722.015672069259,533.2283969726562,730.371582220459,514.4283969726563,737.586182220459C497.90439697265623,743.927282220459,483.67849697265626,749.3867822204589,471.7499969726563,747.515582220459C465.16419697265627,746.482582220459,458.57849697265624,744.515682220459,452.09609697265626,742.579682220459C433.4786969726563,737.019582220459,415.71379697265627,731.713972220459,401.2499969726563,749.515682220459C381.74994697265623,773.515782220459,395.74996697265624,800.015582220459,409.2499969726563,808.515582220459Q415.9999969726563,812.765582220459,413.2499969726563,828.515682220459Q413.2499969726563,840.515682220459,409.2499969726563,860.515682220459Q393.74995697265626,910.515682220459,390.2499529726563,945.015682220459Z" fill="#F6AC6F" fill-opacity="1"/><path d="M772.7093969726562,986.321682220459Q776.9563969726562,956.939682220459,774.6863969726562,936.890682220459Q771.6093969726562,909.713682220459,756.5503969726562,858.398682220459Q753.5003969726563,836.6236822204589,753.5003969726563,825.140682220459Q753.5003969726563,820.620282220459,753.9463969726562,818.203482220459Q757.8743969726563,815.161482220459,762.2143969726562,808.981682220459Q768.1713969726562,800.500382220459,771.3613969726562,790.927982220459Q775.5223969726562,778.447382220459,773.7933969726562,767.047482220459Q771.6343969726563,752.813682220459,760.6723969726563,742.298882220459Q749.9963969726563,732.059182220459,738.6693969726563,729.273682220459Q728.7393969726563,726.832042220459,716.0013969726563,729.771712220459Q712.1253969726563,730.666172220459,706.3583969726562,732.283882220459Q694.7643969726562,735.5366822204589,681.0203969726563,736.542382220459Q668.9613969726563,737.424682220459,657.5683969726563,734.273082220459Q650.3993969726562,732.290182220459,636.6053969726563,726.132772220459Q621.3373969726563,719.3174422204589,612.1993969726562,716.624472220459Q596.5613969726562,712.015692220459,579.7503969726563,712.015682220459Q562.0013969726563,712.015682220459,542.2093969726562,717.452692220459Q530.8483969726562,720.573822220459,510.84539697265626,728.250012220459Q495.37439697265626,734.187282220459,488.75549697265626,735.977282220459Q479.1985969726562,738.561782220459,473.2995969726562,737.6363822204589Q467.37989697265624,736.7078822204589,454.95779697265624,732.997882220459Q435.03679697265625,727.048402220459,424.87789697265623,727.289812220459Q406.06039697265624,727.7369722204589,393.4888069726563,743.209782220459Q377.04719697265625,763.445582220459,383.19041697265624,787.320082220459Q385.63484697265625,796.819982220459,391.43466697265626,804.9116822204589Q396.79807697265625,812.3944822204589,403.5959969726562,816.770482220459Q403.71009697265623,817.056782220459,403.81919697265624,817.601782220459Q404.45189697265624,820.765382220459,403.3989969726563,826.795682220459L403.2499969726563,827.648682220459L403.2499969726563,828.515682220459Q403.2499969726563,839.379682220459,399.5440569726562,858.052682220459Q383.88441697265625,908.684682220459,380.30101697265627,944.006682220459Q376.58069697265626,980.678682220459,391.7856369726563,1025.244682220459L392.04057697265625,1025.991682220459L392.40961697265624,1026.689682220459Q416.62829697265624,1072.494682220459,452.81739697265624,1095.911682220459Q489.10989697265626,1119.394682220459,576.8383969726563,1123.007682220459L577.2513969726563,1123.024682220459L577.6633969726563,1123.007682220459Q652.3053969726562,1119.918682220459,694.2223969726563,1098.959682220459Q738.4483969726563,1076.8466822204591,762.7603969726563,1026.353682220459Q768.7093969726562,1013.997682220459,772.7093969726562,986.321682220459ZM737.1563969726562,863.337682220459Q751.9113969726562,913.503682220459,754.8133969726563,939.140682220459Q756.7933969726562,956.628682220459,752.9153969726563,983.4606822204589Q749.3553969726563,1008.091682220459,744.7403969726563,1017.677682220459Q723.3923969726562,1062.013682220459,685.2773969726563,1081.071682220459Q647.3063969726563,1100.056682220459,577.2483969726562,1103.006682220459Q495.31039697265624,1099.584682220459,463.6824969726563,1079.119682220459Q432.14099697265624,1058.710682220459,410.46009697265623,1018.0376822204589Q396.94962697265623,978.053682220459,400.19889697265626,946.024682220459Q403.59789697265626,912.520682220459,418.80149697265625,863.476682220459L418.9544969726563,862.983682220459L419.05579697265625,862.476682220459Q423.11199697265624,842.195682220459,423.24539697265624,829.378682220459Q426.76509697265624,807.726582220459,414.5780969726562,800.053282220459Q405.67609697265624,794.448282220459,402.55949697265623,782.336282220459Q398.92968697265627,768.229482220459,409.0110969726563,755.8215822204589Q415.76259697265624,747.512082220459,425.35299697265623,747.284182220459Q432.3468969726563,747.117982220459,449.23449697265625,752.161482220459Q462.94849697265624,756.2572822204589,470.20029697265625,757.394782220459Q480.30759697265626,758.980282220459,493.97639697265623,755.283782220459Q501.58339697265626,753.2264822204589,518.0113969726563,746.922282220459Q537.0953969726563,739.598682220459,547.5073969726562,736.738182220459Q564.6983969726563,732.015672220459,579.7503969726563,732.015682220459Q593.6753969726562,732.015682220459,606.5463969726562,735.808682220459Q614.4033969726563,738.124482220459,628.4533969726563,744.3958822204589Q643.6193969726562,751.165682220459,652.2363969726562,753.549182220459Q666.9673969726563,757.624082220459,682.4793969726563,756.488982220459Q698.2293969726563,755.336582220459,711.7613969726563,751.540482220459Q717.0773969726563,750.048982220459,720.4983969726562,749.259582220459Q728.5923969726563,747.391682220459,733.8933969726563,748.695082220459Q740.0183969726563,750.201382220459,746.8273969726563,756.732482220459Q758.0803969726562,767.526082220459,752.3883969726562,784.603482220459Q750.1223969726562,791.4003822204589,745.8473969726563,797.487282220459Q742.8473969726563,801.7595822204589,742.0093969726563,802.210982220459Q733.5003969726563,806.792682220459,733.5003969726563,825.140682220459Q733.5003969726563,838.218682220459,736.8483969726562,861.914682220459L736.9503969726562,862.637682220459L737.1563969726562,863.337682220459Z" fill-rule="evenodd" fill="#000000" fill-opacity="1"/></g><g><path d="M703.0299542236328,813.3673270446777C706.5449542236329,813.1545870446778,708.1029542236329,813.0184670446778,706.7959542236329,813.0154270446777C706.7649542236328,813.0153570446778,706.7359542236328,813.0166870446777,706.7049542236327,813.0195070446778Q704.8569542236328,813.1901970446777,703.0299542236328,813.3673270446777ZM453.31465422363283,810.9172170446777C452.09405422363284,810.7807370446777,451.7518542236328,812.5784470446778,452.9310542236328,812.9223570446777L453.18715422363283,812.9970470446777C453.2289542236328,813.0092570446777,453.2691542236328,813.0243070446777,453.30985422363284,813.0397370446777C456.1106542236328,814.1000770446777,489.20165422363283,817.5154770446777,503.7499542236328,817.5154770446777C511.7499542236328,817.5154770446777,507.4999542236328,821.7654770446777,511.7499542236328,826.5154770446777C515.9914542236328,831.2559770446777,518.1164542236328,835.1249770446777,520.7342542236328,836.5071770446777C520.7450542236328,836.5128770446777,520.7549542236328,836.5182770446777,520.7655542236328,836.5243770446777Q529.5032542236328,841.5166770446777,533.2499542236328,843.0153770446777C535.8086542236329,844.0388770446777,538.0181542236328,845.0040770446777,540.0546542236328,845.8938770446778C549.9569542236328,850.2199770446778,555.7699542236328,852.7595770446777,577.7499542236328,851.5154770446777C604.2499542236328,850.0154770446777,603.2499542236328,851.5154770446777,619.2499542236328,846.0153770446777C625.8059542236329,843.7616770446778,640.6879542236328,834.5153770446777,643.2499542236328,829.5153770446777C644.2469542236329,827.5696770446777,644.0239542236328,826.0820770446777,643.8469542236328,824.9008770446777C643.5689542236328,823.0466770446777,643.4039542236328,821.9472770446778,648.2499542236328,821.0154770446777Q672.7539542236328,816.3031570446777,703.0299542236328,813.3673270446777C689.9389542236328,814.1597870446777,649.6979542236328,816.0153770446777,629.2499542236328,816.0153770446777Q603.4479542236328,816.0153770446777,578.1389542236328,807.1519640446777C577.8859542236328,807.0635406446777,577.6169542236328,807.0804800446778,577.3759542236328,807.1958690446777Q558.9269542236328,816.0153770446777,527.2499542236328,816.0153770446777Q498.9099542236328,816.0153770446777,453.31465422363283,810.9172170446777Z" fill="#EA5A40" fill-opacity="1"/><path d="M500.82345422363284,827.4833770446777Q502.1111542236328,830.7397770446777,504.2975542236328,833.1833770446777Q505.64865422363283,834.6934770446777,507.8489542236328,837.5046770446777Q512.4053542236328,843.3260770446777,515.8792542236329,845.2496770446777Q525.1629542236328,850.5508770446777,529.5360542236328,852.3001770446778Q531.9491542236328,853.2653770446777,536.0513542236329,855.0574770446777Q545.9739542236329,859.3922770446777,552.5299542236328,860.6220770446778Q562.0999542236328,862.4172770446777,578.3149542236329,861.4994770446777Q584.3549542236328,861.1575770446777,592.6629542236328,860.8248770446777Q603.1819542236328,860.4035770446777,607.4599542236328,859.6854770446778Q612.9009542236329,858.7721770446777,622.5009542236328,855.4722770446778Q629.1019542236328,853.2031770446778,638.2689542236328,847.1329770446778Q649.1509542236329,839.9270770446777,652.1489542236328,834.0762770446777Q653.1049542236328,832.2124770446777,653.5579542236328,830.1920770446777Q676.2119542236328,826.0210770446778,703.8149542236329,823.3381770446778Q705.9559542236328,823.2077770446778,707.0969542236328,823.1166770446778Q708.7189542236329,822.9871770446778,709.6609542236329,822.7508770446777Q711.1279542236327,822.3829770446778,712.4139542236328,821.6073770446777Q715.9869542236329,819.4528770446777,716.9719542236328,815.3998370446777Q718.5639542236329,808.8436270446778,713.0809542236328,804.9106370446777Q710.8359542236328,803.3005270446778,708.0419542236327,803.0616470446778Q707.5209542236328,803.0170870446777,706.8189542236328,803.0154570446778Q706.3009542236327,803.0142570446777,705.7859542236329,803.0618870446777Q704.0049542236328,803.2263870446777,702.2429542236328,803.3968270446777Q701.3889542236328,803.4480370446778,700.3639542236328,803.5063770446777Q691.9359542236328,803.9859570446778,679.6239542236328,804.5305470446777Q646.0519542236328,806.0153770446777,629.2499542236328,806.0153770446777Q605.1479542236328,806.0153770446777,581.4439542236328,797.7139670446777Q577.1609542236329,796.2142770446777,573.0629542236328,798.1738670446778Q556.6599542236328,806.0153770446777,527.2499542236328,806.0153770446777Q499.46725422363284,806.0153770446777,454.4258542236328,800.9791470446777Q449.7486542236328,800.4561770446777,446.1648542236328,803.4484070446778Q443.1433342236328,805.9711770446777,442.4002142236328,809.8649970446777Q441.6650562236328,813.7170470446778,443.5004942236328,817.1546770446778Q445.6720142236328,821.2217770446778,450.1310142236328,822.5223770446777L450.3870442236328,822.5970770446777Q450.0556042236328,822.5003770446777,449.76926422363283,822.3919770446778Q453.3838542236328,823.7603770446777,473.1840542236328,825.6308770446777Q490.5326542236328,827.2697770446778,500.82345422363284,827.4833770446777ZM524.2476542236328,826.0018770446777Q525.2688542236328,827.2886770446777,525.6845542236329,827.7402770446778Q525.7766542236328,827.8403770446778,525.8418542236328,827.9075770446777Q533.8832542236328,832.4983770446777,536.9638542236328,833.7305770446777Q539.6682542236329,834.8123770446778,544.0579542236328,836.7301770446777Q551.8959542236328,840.1543770446777,556.2169542236328,840.9648770446777Q563.3979542236328,842.3118770446778,577.1849542236328,841.5313770446777Q583.3899542236328,841.1801770446777,591.8619542236328,840.8408770446778Q601.1179542236328,840.4701770446777,604.1489542236328,839.9613770446778Q607.9619542236328,839.3214770446777,615.9989542236328,836.5584770446777Q620.1869542236328,835.1189770446778,627.2269542236328,830.4574770446777Q631.7159542236328,827.4846770446777,633.4009542236329,825.9957770446778Q631.2169542236328,826.0153770446777,629.2499542236328,826.0153770446777Q603.4959542236328,826.0153770446777,578.2579542236329,817.7502770446778Q558.4269542236328,826.0153770446777,527.2499542236328,826.0153770446777Q525.7714542236329,826.0153770446777,524.2476542236328,826.0018770446777Z" fill-rule="evenodd" fill="#000000" fill-opacity="1"/></g></g></g></svg>