<svg width="250" height="250" viewBox="0 0 573 510" fill="none" xmlns="http://www.w3.org/2000/svg">
<path d="M51.7499 171.016C80.1926 171.016 103.25 147.958 103.25 119.516C103.25 91.073 80.1926 68.0156 51.7499 68.0156C23.3073 68.0156 0.249939 91.073 0.249939 119.516C0.249939 147.958 23.3073 171.016 51.7499 171.016Z" fill="black"/>
<path d="M42.082 111.287C51.7904 104.234 55.3507 92.5835 50.034 85.2657C44.7173 77.9479 32.537 77.7337 22.8286 84.7873C13.1202 91.8409 9.55997 103.491 14.8766 110.809C20.1933 118.127 32.3736 118.341 42.082 111.287Z" fill="white"/>
<path d="M77.7654 17.6721L90.1952 29.2447C90.2437 29.2898 90.3122 29.2188 90.2654 29.1719C90.2654 26.8387 89.2654 25.0054 87.2654 23.6721C84.2654 21.6721 83.2654 19.6721 77.7654 17.6721ZM21.7499 20.0156C21.0661 20.8652 20.1284 21.7948 19.124 22.7249C20.0982 21.6284 20.9735 20.7253 21.7499 20.0156ZM13.2397 28.5458C13.1355 28.8518 13.8496 29.2586 14.0448 29.0009C15.9625 26.4696 17.6556 24.3776 19.124 22.7249C16.5802 25.0807 13.6084 27.4403 13.2499 28.5157C13.2466 28.5257 13.2432 28.5357 13.2397 28.5458Z" fill="#EA5A40"/>
<path fill-rule="evenodd" clip-rule="evenodd" d="M22.7206 31.726C22.726 31.71 22.7314 31.694 22.7367 31.6779L22.7206 31.726ZM12.0731 15.6154C11.6032 16.0476 11.0526 16.5435 10.4213 17.1033C6.72267 20.3828 4.50329 23.1328 3.76311 25.3534L3.76341 25.3523C2.63925 28.6524 3.10775 31.7389 5.16896 34.6118C6.07811 35.879 7.22059 36.9027 8.59639 37.6831C10.0078 38.4835 11.5106 38.9412 13.1048 39.0558C16.8147 39.3226 19.785 37.9838 22.0155 35.0397C23.713 32.7992 25.1709 30.9847 26.3892 29.5964C27.243 28.7831 27.9686 28.053 28.5661 27.4059C35.142 22.6227 42.4449 20.5344 50.4747 21.1409C50.7488 21.1616 51.0231 21.172 51.2976 21.1721C59.3676 21.1762 66.2019 22.7127 71.8005 25.7818L83.3812 36.5638C85.5517 38.5845 88.1136 39.4712 91.067 39.2241C93.5792 39.0139 95.7109 38.0014 97.462 36.1867C99.2132 34.3719 100.149 32.2056 100.27 29.6876C100.294 29.1689 100.285 28.6634 100.241 28.1712C99.9729 22.7476 97.4967 18.4745 92.8124 15.3517C92.5022 15.1448 91.9983 14.7489 91.301 14.164C88.4557 11.7777 85.3827 9.9284 82.0819 8.61624C73.4372 3.70619 63.2902 1.2251 51.6409 1.17294C38.3762 0.24731 26.3877 3.88039 15.6754 12.0721L15.3268 12.3387L15.0029 12.6347C14.1075 13.4533 13.1309 14.4468 12.0731 15.6154Z" fill="black"/>
<path d="M520.75 171.016C549.193 171.016 572.25 147.958 572.25 119.516C572.25 91.073 549.193 68.0156 520.75 68.0156C492.307 68.0156 469.25 91.073 469.25 119.516C469.25 147.958 492.307 171.016 520.75 171.016Z" fill="black"/>
<path d="M512.086 111.292C521.795 104.238 525.355 92.586 520.038 85.2673C514.72 77.9486 502.539 77.7341 492.83 84.7882C483.121 91.8423 479.561 103.494 484.878 110.812C490.195 118.131 502.377 118.346 512.086 111.292Z" fill="white"/>
<path d="M490.75 19.0024C490.066 19.852 489.128 20.7815 488.124 21.7116C489.098 20.6151 489.974 19.7121 490.75 19.0024ZM546.765 16.6589L559.195 28.2314C559.244 28.2765 559.312 28.2055 559.265 28.1586C559.265 25.8254 558.265 23.9921 556.265 22.6588C553.265 20.6588 552.265 18.6589 546.765 16.6589ZM482.24 27.5326C482.136 27.8386 482.85 28.2453 483.045 27.9876C484.963 25.4563 486.656 23.3643 488.124 21.7116C485.58 24.0674 482.608 26.427 482.25 27.5024C482.247 27.5124 482.243 27.5225 482.24 27.5326Z" fill="#EA5A40"/>
<path fill-rule="evenodd" clip-rule="evenodd" d="M491.721 30.7127C491.726 30.6967 491.731 30.6807 491.737 30.6646L491.721 30.7127ZM481.073 14.6022C480.603 15.0343 480.053 15.5303 479.421 16.0901C475.723 19.3695 473.503 22.1196 472.763 24.3402L472.763 24.3391C471.639 27.6391 472.108 30.7256 474.169 33.5985C475.078 34.8657 476.221 35.8895 477.596 36.6698C479.008 37.4703 480.511 37.9279 482.105 38.0426C485.815 38.3093 488.785 36.9706 491.016 34.0265C492.713 31.7859 494.171 29.9715 495.389 28.5832C496.243 27.7699 496.969 27.0397 497.566 26.3927C504.142 21.6095 511.445 19.5212 519.475 20.1277C519.749 20.1483 520.023 20.1587 520.298 20.1588C528.368 20.1629 535.202 21.6995 540.801 24.7685L552.381 35.5506C554.552 37.5712 557.114 38.458 560.067 38.2108C562.579 38.0006 564.711 36.9882 566.462 35.1734C568.213 33.3587 569.149 31.1923 569.27 28.6743C569.294 28.1556 569.285 27.6501 569.241 27.1579C568.973 21.7344 566.497 17.4612 561.812 14.3384C561.502 14.1316 560.998 13.7356 560.301 13.1508C557.456 10.7644 554.383 8.91515 551.082 7.603C542.437 2.69294 532.29 0.211858 520.641 0.159698C507.376 -0.765935 495.388 2.86714 484.675 11.0589L484.327 11.3254L484.003 11.6215C483.108 12.44 482.131 13.4336 481.073 14.6022Z" fill="black"/>
<path d="M98.25 331.016C95.9166 354.016 99.5833 379.682 109.25 408.016C124.583 437.016 143.583 458.849 166.25 473.516C188.917 488.182 228.584 496.682 285.25 499.016C333.584 497.016 371.084 489.349 397.75 476.016C437.75 456.016 455.25 421.516 461.75 408.016C468.25 394.516 475.75 350.516 472.75 324.016C470.75 306.349 464.75 280.516 454.75 246.516C450.417 215.849 450.417 199.349 454.75 197.016C461.25 193.516 486.249 159.016 461.75 135.516C449.5 123.766 439.25 122.516 426.25 125.516C413.25 128.516 410.25 131.016 389.75 132.516C369.117 134.025 355.195 127.811 340.529 121.264C326.052 114.802 310.849 108.016 287.75 108.016C263.002 108.016 241.228 116.372 222.428 123.586C205.904 129.927 191.679 135.387 179.75 133.516C173.164 132.483 166.579 130.516 160.096 128.58C141.479 123.02 123.714 117.714 109.25 135.516C89.75 159.516 103.75 186.016 117.25 194.516C121.75 197.349 123.083 204.016 121.25 214.516C121.25 222.516 119.917 233.182 117.25 246.516C106.917 279.849 100.583 308.016 98.25 331.016Z" fill="#F6AC6F"/>
<path fill-rule="evenodd" clip-rule="evenodd" d="M480.709 372.322C483.541 352.734 484.2 336.257 482.686 322.891C480.635 304.773 474.59 278.609 464.55 244.399C462.517 229.882 461.5 218.796 461.5 211.141C461.5 208.127 461.649 205.815 461.946 204.203C464.565 202.175 467.321 199.102 470.214 194.982C474.186 189.327 477.235 183.31 479.361 176.928C482.135 168.608 482.946 160.647 481.793 153.047C480.354 143.558 475.98 135.309 468.672 128.299C461.555 121.472 454.221 117.131 446.669 115.274C440.049 113.646 432.493 113.812 424.001 115.772C421.417 116.368 418.203 117.205 414.358 118.284C406.629 120.452 398.183 121.872 389.02 122.542C380.981 123.131 373.164 122.374 365.568 120.273C360.789 118.951 353.801 116.238 344.605 112.133C334.427 107.589 326.291 104.42 320.199 102.624C309.774 99.5519 298.958 98.0157 287.75 98.0157C275.918 98.0157 263.404 99.828 250.209 103.453C242.635 105.533 232.181 109.133 218.845 114.25C208.531 118.208 201.168 120.784 196.755 121.977C190.384 123.7 185.232 124.253 181.3 123.636C177.353 123.017 171.239 121.471 162.958 118.998C149.677 115.032 139.65 113.129 132.878 113.29C120.333 113.588 109.87 118.895 101.489 129.21C90.5277 142.7 87.0949 157.404 91.1904 173.32C92.82 179.653 95.5681 185.517 99.4346 190.912C103.01 195.9 107.064 199.853 111.596 202.771C111.672 202.961 111.746 203.238 111.819 203.602C112.241 205.711 112.101 208.775 111.399 212.796L111.25 213.649V214.516C111.25 221.758 110.015 231.604 107.544 244.053C97.1043 277.807 90.6899 306.459 88.301 330.007C85.8208 354.455 89.649 381.534 99.7856 411.245L100.041 411.992L100.41 412.69C116.555 443.226 136.691 466.3 160.817 481.912C185.012 497.567 226.353 506.599 284.838 509.008L285.251 509.025L285.663 509.008C335.425 506.948 374.278 498.932 402.222 484.96C431.706 470.218 454.552 446.016 470.76 412.354C474.726 404.116 478.043 390.772 480.709 372.322ZM445.156 249.338C454.993 282.782 460.879 308.049 462.813 325.141C464.133 336.799 463.501 351.573 460.915 369.461C458.542 385.881 455.817 397.287 452.74 403.678C438.508 433.235 418.687 454.366 393.277 467.072C367.963 479.728 331.954 487.04 285.248 489.007C230.623 486.725 192.768 478.763 171.682 465.12C150.655 451.514 132.914 431.153 118.46 404.038C109.453 377.382 106.033 353.377 108.199 332.025C110.465 309.689 116.666 282.173 126.801 249.477L126.954 248.984L127.056 248.477C129.76 234.956 131.156 223.923 131.245 215.379C133.592 200.944 130.703 191.169 122.578 186.053C116.643 182.317 112.637 176.411 110.559 168.336C108.14 158.932 110.29 150.094 117.011 141.822C121.512 136.282 126.959 133.436 133.353 133.284C138.016 133.173 145.976 134.799 157.234 138.161C166.377 140.892 173.366 142.636 178.2 143.395C184.938 144.452 192.864 143.748 201.976 141.284C207.048 139.912 215.059 137.125 226.011 132.922C238.734 128.04 248.566 124.645 255.507 122.738C266.968 119.59 277.716 118.016 287.75 118.016C297.034 118.016 305.966 119.28 314.546 121.809C319.784 123.353 327.087 126.215 336.453 130.396C346.564 134.909 354.492 137.96 360.236 139.549C370.057 142.266 380.138 143.246 390.479 142.489C400.979 141.721 410.74 140.071 419.761 137.54C423.305 136.546 426.218 135.786 428.498 135.26C433.894 134.014 438.359 133.826 441.893 134.695C445.977 135.699 450.288 138.378 454.827 142.732C462.329 149.928 464.183 159.219 460.388 170.603C458.878 175.135 456.697 179.429 453.847 183.487C451.847 186.336 450.568 187.91 450.009 188.211C444.337 191.265 441.5 198.909 441.5 211.141C441.5 219.859 442.616 232.117 444.848 247.915L444.95 248.638L445.156 249.338Z" fill="black"/>
<path d="M411.03 199.367C414.545 199.155 416.103 199.018 414.796 199.015C414.765 199.015 414.736 199.017 414.705 199.02C413.473 199.133 412.248 199.249 411.03 199.367ZM161.315 196.917C160.094 196.781 159.752 198.578 160.931 198.922L161.187 198.997C161.229 199.009 161.269 199.024 161.31 199.04C164.111 200.1 197.202 203.515 211.75 203.515C219.75 203.515 215.5 207.765 219.75 212.515C223.991 217.256 226.116 221.125 228.734 222.507C228.745 222.513 228.755 222.518 228.766 222.524C234.591 225.853 238.752 228.016 241.25 229.015C243.809 230.039 246.018 231.004 248.055 231.894C257.957 236.22 263.77 238.76 285.75 237.515C312.25 236.015 311.25 237.515 327.25 232.015C333.806 229.762 348.688 220.515 351.25 215.515C352.247 213.57 352.024 212.082 351.847 210.901C351.569 209.047 351.404 207.947 356.25 207.015C372.586 203.874 390.846 201.325 411.03 199.367C397.939 200.16 357.698 202.015 337.25 202.015C320.049 202.015 303.012 199.061 286.139 193.152C285.886 193.064 285.617 193.08 285.376 193.196C273.077 199.076 256.368 202.015 235.25 202.015C216.357 202.015 191.712 200.316 161.315 196.917Z" fill="#EA5A40"/>
<path fill-rule="evenodd" clip-rule="evenodd" d="M208.823 213.483C209.682 215.654 210.84 217.554 212.298 219.183C213.198 220.19 214.382 221.631 215.849 223.505C218.887 227.386 221.563 229.967 223.879 231.25C230.068 234.784 234.621 237.134 237.536 238.3C239.145 238.944 241.317 239.863 244.051 241.058C250.666 243.947 256.159 245.802 260.53 246.622C266.91 247.819 275.505 248.111 286.315 247.499C290.342 247.272 295.124 247.047 300.663 246.825C307.676 246.544 312.608 246.164 315.46 245.685C319.087 245.077 324.101 243.672 330.501 241.472C334.902 239.96 340.158 237.18 346.269 233.133C353.524 228.329 358.15 223.977 360.149 220.076C360.786 218.834 361.256 217.539 361.558 216.192C376.661 213.411 393.413 211.127 411.815 209.338C413.242 209.251 414.336 209.177 415.097 209.117C416.178 209.03 417.033 208.908 417.661 208.751C418.639 208.506 419.557 208.124 420.414 207.607C422.796 206.171 424.315 204.102 424.972 201.4C426.033 197.029 424.736 193.533 421.081 190.911C419.584 189.837 417.905 189.221 416.042 189.062C415.695 189.032 415.287 189.017 414.819 189.015C414.474 189.015 414.129 189.03 413.786 189.062C412.599 189.172 411.418 189.283 410.243 189.397C409.674 189.431 409.047 189.467 408.364 189.506C402.745 189.826 395.832 190.167 387.624 190.531C365.243 191.52 348.451 192.015 337.25 192.015C321.182 192.015 305.247 189.248 289.444 183.714C286.589 182.714 283.795 182.868 281.063 184.174C270.128 189.402 254.857 192.015 235.25 192.015C216.728 192.015 192.453 190.337 162.426 186.979C159.308 186.63 156.554 187.454 154.165 189.448C152.151 191.13 150.896 193.269 150.4 195.865C149.91 198.433 150.277 200.863 151.5 203.155C152.948 205.866 155.158 207.655 158.131 208.522L158.387 208.597C158.166 208.533 157.96 208.464 157.769 208.392C160.179 209.304 167.984 210.384 181.184 211.631C192.75 212.723 201.963 213.341 208.823 213.483ZM232.248 212.002C232.928 212.86 233.407 213.439 233.685 213.74C233.746 213.807 233.798 213.863 233.842 213.908C239.203 216.968 242.91 218.909 244.964 219.731C246.767 220.452 249.132 221.452 252.058 222.73C257.283 225.013 261.336 226.425 264.217 226.965C269.004 227.863 275.994 228.052 285.185 227.531C289.322 227.297 294.214 227.067 299.862 226.841C306.033 226.594 310.128 226.301 312.149 225.961C314.691 225.535 318.641 224.4 323.999 222.558C326.791 221.599 330.534 219.565 335.227 216.457C338.22 214.476 340.278 212.988 341.401 211.996C339.945 212.009 338.561 212.015 337.25 212.015C320.081 212.015 303.083 209.26 286.258 203.75C273.037 209.26 256.035 212.015 235.25 212.015C234.264 212.015 233.264 212.011 232.248 212.002Z" fill="black"/>
</svg>
